<?xml version="1.0" standalone="no"?>
<!DOCTYPE svg PUBLIC "-//W3C//DTD SVG 1.1//EN" "http://www.w3.org/Graphics/SVG/1.1/DTD/svg11.dtd">
<svg xmlns="http://www.w3.org/2000/svg">
  <defs>
    <font id="Alata" horiz-adv-x="586">
      <font-face font-family="Alata" units-per-em="1000" panose-1="0 0 0 0 0 0 0 0 0 0" ascent="1100" descent="-280" alphabetic="0" />
      <glyph unicode=" " glyph-name="space" horiz-adv-x="245" />
      <glyph unicode="!" glyph-name="exclam" horiz-adv-x="291" d="M102,261L83,759H211L192,261H102ZM145-11Q115-11 94,9.5T73,61q0,30 20.5,51T145,133q32,0 52-21t20-51q0-31-20.5-51.5T145-11Z" />
      <glyph unicode="&quot;" glyph-name="quotedbl" horiz-adv-x="420" d="M45,543L68,842H174L144,543H45Zm201,0l23,299H375L345,543H246Z" />
      <glyph unicode="#" glyph-name="numbersign" horiz-adv-x="830" d="M169,2l32,175H96v94H218l32,178H134v93H268l32,180H403L370,542H524l33,180H659L626,542H734V449H609L576,271H696V177H560L528,2H425l32,175H304L272,2H169ZM321,271H474l33,178H353L321,271Z" />
      <glyph unicode="$" glyph-name="dollar" horiz-adv-x="636" d="M286-108V-9Q227-7 175.5,11.5T101,52l52,97q10-8 30.5-20T231,107.5T286,95V326q-19,10-38.5,20.5T209,370q-39,27-68,69T112,549q0,86 50,134.5T286,742V844h63V745q63-2 102-22t58-36l-53-93q-15,16-43.5,30T349,642V420q32-18 65-36t60-44q26-25 43-58.5T534,202q0-91-51.5-144T349-6V-108H286Zm0,564V637q-27-9-44.5-30.5T224,552q0-31 17.5-54T286,456Zm63-355q30,9 49,30.5T417,187q0,37-19,61t-49,43V101Z" />
      <glyph unicode="%" glyph-name="percent" horiz-adv-x="939" d="M203,2L616,713H719L308,2H203Zm22,355q-73,0-119,46T60,533q0,83 46,131t119,48q71,0 116-48t45-131q0-84-45-130T225,357Zm0,81q33,0 51.5,25.5T295,533q0,45-18.5,71T225,630q-34,0-54-26t-20-71q0-44 20-69.5T225,438ZM718,2Q645,2 599,48T553,179q0,83 46,130.5T718,357q72,0 116.5-47.5T879,179q0-85-44.5-131T718,2Zm0,81q34,0 52.5,25.5T789,179q0,44-18.5,70T718,275t-53.5-26T645,179q0-45 19.5-70.5T718,83Z" />
      <glyph unicode="&amp;" glyph-name="ampersand" horiz-adv-x="749" d="M321-15Q264-15 211.5,8t-86,71T92,201q0,68 40,115.5T231,406q-40,52-60,90t-20,87q0,52 24,90.5T240.5,733T332,754q55,0 93-22t58-58t20-77q0-40-12.5-74.5t-41-69T371,377q24-31 62-79.5T511,198q31,28 52,53t31.5,41T605,308l83-68q0,0-14-18.5t-39.5-46T573,119q40-50 68-84.5T669,0H549q0,0-11,14T508,50Q469,21 423,3T321-15Zm-9,474q47,38 68,67t21,68q0,32-19.5,51T328,664q-28,0-53-20t-25-61q0-26 16.5-56T312,459ZM329,84q17,0 46,6.5T443,131q-25,32-53,67t-53.5,67T292,320q-46-34-63-61.5T212,197q0-48 29-80.5T329,84Z" />
      <glyph unicode="&apos;" glyph-name="quotesingle" horiz-adv-x="219" d="M45,545L68,844H174L144,545H45Z" />
      <glyph unicode="(" glyph-name="parenleft" horiz-adv-x="461" d="M340-217q-16,8-47,36t-66.5,74.5t-68,111t-53,147T85,334t20.5,182.5t53,147.5t68,111.5t66.5,74T340,886l58-66q-32-23-68.5-66T260,649.5T206.5,509T186,334t20.5-175T260,19T329.5-85T398-152l-58-65Z" />
      <glyph unicode=")" glyph-name="parenright" horiz-adv-x="461" d="M121-217L63-152q32,24 68.5,67T201,19t53.5,140T275,334T254.5,509T201,649.5T131.5,754T63,820l58,66q17-9 47.5-36.5t66-74t68-111.5t53-147.5T376,334T355.5,151.5t-53-147t-68-111t-66-74.5T121-217Z" />
      <glyph unicode="*" glyph-name="asterisk" horiz-adv-x="635" d="M253,362l40,200L143,427L78,537l193,63L78,665l66,111L293,636L252,840H380L335,637L490,776l66-111L354,600l202-63L491,427L335,563l45-201H253Z" />
      <glyph unicode="+" glyph-name="plus" horiz-adv-x="647" d="M274,92V276H85v92H274V552h97V368H561V276H371V92H274Z" />
      <glyph unicode="," glyph-name="comma" horiz-adv-x="277" d="M52-167q17,35 32.5,74.5T113-8Q83,2 74.5,22T66,61q0,31 20.5,51.5T138,133t50.5-22.5T208,42q0-33-15-71.5T157-104t-40-63H52Z" />
      <glyph unicode="-" glyph-name="hyphen" horiz-adv-x="563" d="M110,203v96H453V203H110Z" />
      <glyph unicode="." glyph-name="period" horiz-adv-x="184" d="M92-10Q62-10 41,10.5T20,61q0,31 20.5,51.5T92,133q32,0 52-20.5T164,61q0-30-20.5-50.5T92-10Z" />
      <glyph unicode="/" glyph-name="slash" horiz-adv-x="461" d="M74-92L290,827h97L171-92H74Z" />
      <glyph unicode="0" glyph-name="zero" horiz-adv-x="647" d="M324-15q-73,0-124,30T117,97.5t-46.5,122T56,367q0,81 14,150t45,120.5T197.5,718T324,747q100,0 158-49t83.5-134.5T591,367q0-107-26.5-194t-85-137.5T324-15Zm0,102q45,0 73.5,24t44,65T463,266.5T469,367q0,56-6,106t-21.5,89t-44,61.5T324,646t-74-22.5T205.5,562T184,473t-6-106q0-51 6-100.5t21.5-90t44.5-65T324,87Z" />
      <glyph unicode="1" glyph-name="one" horiz-adv-x="370" d="M129,0V724l113,32V0H129Z" />
      <glyph unicode="2" glyph-name="two" horiz-adv-x="646" d="M71,0L318,309q20,26 45.5,63.5t45,78T428,526q0,55-29.5,85T310,641q-41,0-69-18t-45.5-42T168,538L75,588q19,36 49.5,72.5T201,722t112,25q76,0 127-27t76.5-74T542,539q0-64-31.5-131T422,271L286,99H571V0H71Z" />
      <glyph unicode="3" glyph-name="three" horiz-adv-x="637" d="M277-15q-41,0-85,8.5T111.5,17T55,51l47,95q26-20 72-39.5T272,87q44,0 83,11.5t63.5,42T443,226q0,59-46.5,95T271,357q-24,0-49-1.5T178,351L362,637H86v98H561L353,438q65-2 112.5-30T539,334.5T565,234q0-71-33.5-127.5t-98-89T277-15Z" />
      <glyph unicode="4" glyph-name="four" horiz-adv-x="654" d="M381,0V184H45L256,760l104-39L201,289H381l6,167H498V289H600V184H498V0H381Z" />
      <glyph unicode="5" glyph-name="five" horiz-adv-x="646" d="M298-15Q232-15 176.5,2T83,52l51,94q9-7 31.5-20.5t56-24.5T295,90q67,0 111,38t44,105q0,37-15.5,69.5t-52,53T283,376q-30,0-62.5-3.5T161,363t-41-14l15,386H512V637H244L234,463q14,4 34.5,6t49.5,2q116,0 182.5-60.5T567,244q0-76-31.5-134.5T444,18T298-15Z" />
      <glyph unicode="6" glyph-name="six" horiz-adv-x="646" d="M320-15q-68,0-124,29.5t-89,84T74,229q0,29 4.5,57T97,350t41.5,89.5t72.5,131T324,760l96-56q-54-82-86-133t-48.5-79.5T262,450t-12-18q15,14 41.5,23.5T355,465q69,0 119-32t77-84.5T578,236q0-80-33-136T453.5,14.5T320-15Zm7,98q64,0 100,40.5T463,226q0,68-38.5,105.5T330,369q-64,0-102.5-38.5T189,224q0-61 39.5-101T327,83Z" />
      <glyph unicode="7" glyph-name="seven" horiz-adv-x="533" d="M117,0L362,637H20v98H503L245,0H117Z" />
      <glyph unicode="8" glyph-name="eight" horiz-adv-x="646" d="M322-15q-69,0-127,28T102.5,92T68,212q0,51 17,87.5T129.5,360T187,397q-37,22-62.5,60.5T99,548q0,62 29.5,106.5t80,68.5T322,747q64,0 114-24t79.5-68.5T545,550q0-57-27-95t-65-59q31-13 59-37t46-60t18-87q0-69-35-120T448.5,13T322-15Zm0,458q30,0 54.5,15T416,498t15,55q0,47-30,76.5T322,659q-50,0-80-29.5T212,553q0-46 30.5-78T322,443Zm0-360q65,0 102.5,38T462,215q0,58-40,95T322,347T221.5,310.5T181,215q0-56 38-94T322,83Z" />
      <glyph unicode="9" glyph-name="nine" horiz-adv-x="646" d="M225,0L354,225q11,19 26,44t24,35q-14-13-39-23t-68-10q-67,0-118,31.5t-79.5,85T71,507q0,72 33,126t92,84t138,30q68,0 123.5-29.5t88.5-84T579,502q0-25-3-49.5t-14.5-58t-36-83.5T460,185.5T355,0H225Zm99,367q59,0 99.5,36T464,505q0,64-39,104.5T327,650q-65,0-103-41T186,506q0-45 19.5-76t51-47T324,367Z" />
      <glyph unicode=":" glyph-name="colon" horiz-adv-x="214" d="M107,328q-30,0-51,20.5T35,399q0,31 20.5,51.5T107,471q32,0 52-20.5T179,399q0-30-20.5-50.5T107,328Zm0-338Q77-10 56,10.5T35,61q0,31 20.5,51.5T107,133q32,0 52-20.5T179,61q0-30-20.5-50.5T107-10Z" />
      <glyph unicode=";" glyph-name="semicolon" horiz-adv-x="196" d="M93,328q-30,0-51,20.5T21,399q0,31 20.5,51.5T93,471q32,0 52-20.5T165,399q0-30-20.5-50.5T93,328ZM10-167q17,35 32.5,74.5T71-8Q41,2 32.5,22T24,61q0,31 20.5,51.5T96,133t50.5-22.5T166,42q0-33-15-71.5T115-104T75-167H10Z" />
      <glyph unicode="&lt;" glyph-name="less" horiz-adv-x="646" d="M552-9L93,181V290L552,471V359L192,232L552,102V-9Z" />
      <glyph unicode="=" glyph-name="equal" horiz-adv-x="555" d="M91,368v91H463V368H91Zm0-219v93H463V149H91Z" />
      <glyph unicode="&gt;" glyph-name="greater" horiz-adv-x="646" d="M94-9V102L453,232L94,359V470L552,290V181L94-9Z" />
      <glyph unicode="?" glyph-name="question" horiz-adv-x="519" d="M173,227q0,0-3,13.5T167,273q0,42 18,71t44.5,51.5t53.5,44t45,48T346,552q0,39-27.5,66.5T238,646q-33,0-56-13.5t-36-30T130,575L30,625q4,7 15.5,26.5T81,693t63.5,38T244,747q66,0 116-25t77.5-67T465,562q0-53-19-89t-47-60.5T342.5,367T295,324t-19-54q0-16 1-29.5t1-13.5H173ZM235-10q-31,0-51.5,20.5T163,61q0,31 20.5,51.5T235,133q30,0 51-20.5T307,61q0-30-21-50.5T235-10Z" />
      <glyph unicode="@" glyph-name="at" horiz-adv-x="969" d="M463-184q-128,0-220,47T102.5-7T54,182q0,102 39,187T202,516t163.5,95.5T568,645q117,0 194-42T877,491.5T915,340q0-64-20.5-122t-58-102t-88-69.5T637,21q-44,0-61,21T557,89q-25-34-59.5-49.5T423,24q-67,0-112.5,45T265,196q0,75 32,129t83.5,83T492,437q50,0 74.5-16.5T600,378l13,55h94L645,162q-5-23-5-34q0-17 8-23t22-6q41,0 72.5,23t53,59t33,76.5T840,333q0,71-30,126.5t-93.5,88T554,580q-90,0-166.5-29t-134-81T164,347.5T132,194q0-99 41.5-168t117-105T467-115q68,0 119,13.5T670-72l29-62q-36-16-94.5-33T463-184ZM452,106q42,0 69,25.5t40.5,63T575,267q0,41-18.5,66T496,358q-58,0-94-45T366,201q0-40 21-67.5T452,106Z" />
      <glyph unicode="A" glyph-name="A" horiz-adv-x="685" d="M336,736h11L701,0H572L509,144H172L109,0H-16L336,736Zm5-213L297,423L217,245H465L386,422L343,523h-2Z" />
      <glyph unicode="B" glyph-name="B" horiz-adv-x="626" d="M78,0V735H265q90,0 142.5-18t78-46T519,612t8-58q0-29-8.5-60.5t-28.5-58T435,393q75-19 106.5-65.5T573,224q0-39-9-79T526.5,72.5T441,20T288,0H78ZM188,423h95q52,0 80,17.5T402.5,486T414,545q0,26-11.5,47.5t-41,34.5T278,640H188V423Zm0-329H303q51,0 81.5,12T431,137t21,41.5t5,44.5q0,52-35,81.5T312,334H188V94Z" />
      <glyph unicode="C" glyph-name="C" horiz-adv-x="649" d="M412-7Q324-7 255.5,23t-116,82.5t-72,120T43,369q0,83 27.5,152T148,640.5T267,719t152,28q54,0 96-11t69-24.5T618,690L569,590q-27,24-66.5,39T410,644q-69,0-124.5-34t-88-96T165,367q0-75 28-136.5T275.5,132T408,95q43,0 84.5,11.5T578,145l33-95q-13-12-44-25.5T495.5,2T412-7Z" />
      <glyph unicode="D" glyph-name="D" horiz-adv-x="688" d="M78,0V735H255q99,0 168.5-22T538,654.5t70.5-83t35.5-96T654,380q0-69-19.5-136.5T570,121T449.5,33T261,0H78ZM190,99h83q74,0 124.5,23t81,62.5t44,89T536,375q0,71-25,130.5T428.5,601T273,637H190V99Z" />
      <glyph unicode="E" glyph-name="E" horiz-adv-x="467" d="M77,0V735H399V637H188V434H358V334H188V99H432V0H77Z" />
      <glyph unicode="F" glyph-name="F" horiz-adv-x="467" d="M77,0V735H422V638H188V430H370V332H188V0H77Z" />
      <glyph unicode="G" glyph-name="G" horiz-adv-x="744" d="M421-10q-83,0-152.5,29t-120,80.5t-78,122T43,374q0,81 28,149t79,118t121,77.5T424,746q65,0 112.5-11.5t76-25T649,688l-44-94q-7,6-28,18t-58.5,22T422,644q-82,0-140-35.5T193,513T162,380q0-85 34-150.5t93-102T423,91q43,0 87.5,11T586,139V281H435V384H697V96Q664,54 593,22T421-10Z" />
      <glyph unicode="H" glyph-name="H" horiz-adv-x="637" d="M77,0V735H189V435H448V735H560V0H448V341H189V0H77Z" />
      <glyph unicode="I" glyph-name="I" horiz-adv-x="294" d="M91,0V735H203V0H91Z" />
      <glyph unicode="J" glyph-name="J" horiz-adv-x="461" d="M193-10q-34,0-79.5,9T36,36L81,139q17-20 39.5-31T177,97q30,0 49.5,10.5t29,39.5t9.5,84V735H376V203q0-80-25-126.5T284.5,10T193-10Z" />
      <glyph unicode="K" glyph-name="K" horiz-adv-x="595" d="M78,0V735H188V407L440,735H574L321,412L610,0H473L248,329l-60-74V0H78Z" />
      <glyph unicode="L" glyph-name="L" horiz-adv-x="432" d="M78,0V735H191V100H402V0H78Z" />
      <glyph unicode="M" glyph-name="M" horiz-adv-x="895" d="M444,0L267,343L221,447L200,343L132,0H21L173,735h12L387,338l60-133l60,133L705,735h11L874,0H764L690,343L668,447L628,343L450,0h-6Z" />
      <glyph unicode="N" glyph-name="N" horiz-adv-x="710" d="M617,0L187,476l3-80V0H78V736H92L524,254l-4,84V735H632V0H617Z" />
      <glyph unicode="O" glyph-name="O" horiz-adv-x="832" d="M416-10q-75,0-141.5,26T157,91.5T76.5,211T47,369q0,89 29.5,159t81,119t118,74.5T416,747t140.5-25.5t118-74.5t81-119T785,369q0-88-29.5-158T675,91.5T557.5,16T416-10Zm0,101q68,0 125,32t91,93.5T666,368q0,91-34,152.5t-90.5,93T416,645T290.5,613.5t-90.5-93T166,368q0-90 35-151.5T293,123T416,91Z" />
      <glyph unicode="P" glyph-name="P" horiz-adv-x="530" d="M78,0V735H240q96,0 154-28t84-77.5T504,516q0-117-68-180.5T230,272H191V0H78ZM191,371h42q66,0 100,21t46,52t12,60q0,35-13,65t-45,49t-90,19H191V371Z" />
      <glyph unicode="Q" glyph-name="Q" horiz-adv-x="832" d="M416-10q-75,0-141.5,26T157,91.5T76.5,211T47,369q0,89 29.5,159t81,119t118,74.5T416,747t140.5-25.5t118-74.5t81-119T785,369q0-111-46-193T618,47L709-94H598L532,7Q476-10 416-10Zm0,101q30,0 58,6L407,206H519l43-70q47,34 75.5,92.5T666,368q0,91-34,152.5t-90.5,93T416,645T290.5,613.5t-90.5-93T166,368q0-90 35-151.5T293,123T416,91Z" />
      <glyph unicode="R" glyph-name="R" horiz-adv-x="610" d="M78,0V735H245q56,0 108.5-11T447,687t65-69t24-106q0-73-34-127T399,302L574,0H445L297,278q-17-1-41.5-1.5T215,276H187V0H78ZM187,367h71q55,0 88.5,14T398,416.5t24.5,47T429,511q0,49-22.5,77.5t-62,41T254,642H187V367Z" />
      <glyph unicode="S" glyph-name="S" horiz-adv-x="525" d="M247-10q-42,0-83,10.5t-73,26T43,58l53,95q11-9 34.5-23.5T185,104t62-11q51,0 85.5,24T367,187q0,38-20,63t-52.5,44t-70,36.5T153,370q-39,26-68,69T56,550q0,67 30.5,110t81,64.5T278,746q48,0 82-10t57-24t36-25l-53-91q-17,18-51,33.5T273,645q-49,0-78-22.5T166,556q0-39 26-66.5t66.5-50T342,394t76-54q27-24 46-60t19-81q0-68-31.5-115T367,13.5T247-10Z" />
      <glyph unicode="T" glyph-name="T" horiz-adv-x="549" d="M218,0V637H30v98H519V637H329V0H218Z" />
      <glyph unicode="U" glyph-name="U" horiz-adv-x="662" d="M331-10q-96,0-153.5,39t-83,112T69,314V735H181V312q0-117 35.5-167.5T331,94t114,49t35,169V735H593V314q0-154-64-239T331-10Z" />
      <glyph unicode="V" glyph-name="V" horiz-adv-x="662" d="M324,0L-16,735H111L331,230L552,735H678L339,0H324Z" />
      <glyph unicode="W" glyph-name="W" horiz-adv-x="983" d="M495,739L696,262L872,735H991L705,0H691L491,476L292,1H278L-8,735H111L287,262L489,739h6Z" />
      <glyph unicode="X" glyph-name="X" horiz-adv-x="603" d="M10,0L235,383L23,735H158L297,478L440,735H572L359,385L593,0H460L298,291L139,0H10Z" />
      <glyph unicode="Y" glyph-name="Y" horiz-adv-x="589" d="M239,0V343L-16,735H118L295,445L472,735H605L351,341V0H239Z" />
      <glyph unicode="Z" glyph-name="Z" horiz-adv-x="580" d="M8,0L376,639H55v96H552L189,98H537V0H8Z" />
      <glyph unicode="[" glyph-name="bracketleft" horiz-adv-x="459" d="M167-202V842H382V759H276V-119H382v-83H167Z" />
      <glyph unicode="\" glyph-name="backslash" horiz-adv-x="461" d="M290-92L74,827h97L387-92H290Z" />
      <glyph unicode="]" glyph-name="bracketright" horiz-adv-x="459" d="M293-202H78v83H184V759H78v83H293V-202Z" />
      <glyph unicode="^" glyph-name="asciicircum" horiz-adv-x="646" d="M56,276L273,747h98L589,276H485L323,602L161,276H56Z" />
      <glyph unicode="_" glyph-name="underscore" horiz-adv-x="739" d="M-11-173v71H750v-71H-11Z" />
      <glyph unicode="`" glyph-name="grave" horiz-adv-x="308" d="M205,541L30,750l95,61L278,582l-73-41Z" />
      <glyph unicode="a" glyph-name="a" horiz-adv-x="615" d="M274-10q-61,0-113.5,29T76,102T44,231q0,72 27.5,126t78,84T270,471q42,0 76.5-14.5t58-35T436,382l2,77H541V0H439l-2,81q-10-22-33.5-43T347,3.5T274-10Zm18,90q37,0 67.5,17.5t49,49.5T427,223v7q0,45-18.5,78.5t-49,52T292,379q-67,0-100.5-43T158,230q0-64 33.5-107T292,80Z" />
      <glyph unicode="b" glyph-name="b" horiz-adv-x="617" d="M343-10q-40,0-73,13.5T214.5,38T181,81L179,0H75V735H181V452l-5-78q11,26 37,48t61.5,35.5T350,471q69,0 119-30.5t77-85T573,229q0-75-32-128.5t-84-82T343-10ZM325,80q68,0 101.5,43T460,229q0,65-33.5,107.5T325,379q-36,0-67-17.5T208.5,312T190,236v-7q1-44 19-78t48.5-52.5T325,80Z" />
      <glyph unicode="c" glyph-name="c" horiz-adv-x="466" d="M285-10q-67,0-121.5,29t-87,84T44,235q0,72 29.5,125t83,82T280,471q58,0 95.5-15T432,424l-48-87q-4,5-16,15t-31.5,18.5T289,379q-66,0-98.5-40T158,236q0-73 34.5-114.5T289,80q33,0 62,9.5T395,110l39-76Q416,20 377,5T285-10Z" />
      <glyph unicode="d" glyph-name="d" horiz-adv-x="614" d="M274-10q-61,0-113.5,29T76,102T44,231q0,73 27.5,126.5t78,83.5T270,471q40,0 75-13.5T405,422t36-48l-5,78V735H542V0H439l-2,81q-10-22-33.5-43T347,3.5T274-10Zm18,91q37,0 67.5,17.5t49,49.5T427,224v7q0,45-18.5,78.5t-49,52T292,380q-67,0-100.5-43T158,231q0-64 33.5-107T292,81Z" />
      <glyph unicode="e" glyph-name="e" horiz-adv-x="532" d="M288-10q-86,0-140,33.5T69,112T44,229q0,75 30.5,129T159,441.5T281,471q109,0 159-60.5T490,248q0-27-3-56H157q11-62 44.5-88.5T291,77q54,0 85,10t51,20l33-77Q440,17 398,3.5T288-10ZM157,267H385q1,65-29,89t-78,24q-50,0-81.5-26.5T157,267Z" />
      <glyph unicode="f" glyph-name="f" horiz-adv-x="362" d="M114,0V373H40v86h74v99q0,89 43,139t128,50q27,0 48.5-8T362,728L341,626q-5,6-19.5,14.5T288,649q-14,0-29.5-5.5t-26.5-24T220,562V459H328V373H220V0H114Z" />
      <glyph unicode="g" glyph-name="g" horiz-adv-x="607" d="M294-240q-39,0-74.5,8T158-214.5T123-200l24,100q24-16 59-29.5T291-143q23,0 47.5,4.5t46.5,19t35.5,43T434-1V81q-20-37-66.5-64T262-10q-60,0-109.5,29.5t-79,84T44,232q0,71 27.5,124.5t78,84T269,471q42,0 77-14.5t58.5-35T436,382l2,77H540V3q0-113-58.5-178T294-240ZM292,81q37,0 67.5,17.5t49,49.5T427,224v7q0,45-18.5,78.5t-49,52T292,380q-67,0-100.5-43T158,231q0-64 33.5-107T292,81Z" />
      <glyph unicode="h" glyph-name="h" horiz-adv-x="575" d="M76,0V735H181V459l-4-85q18,41 59.5,69T336,471q74,0 111-30.5T496.5,354T509,221V0H402V222q0,80-16,119t-73,39q-28,0-58.5-17.5t-51.5-51T182,228V0H76Z" />
      <glyph unicode="i" glyph-name="i" horiz-adv-x="270" d="M79,0V459H191V0H79Zm56,545q-31,0-51.5,21T63,618q0,28 20.5,48T135,686t51.5-20T207,618q0-31-20.5-52T135,545Z" />
      <glyph unicode="j" glyph-name="j" horiz-adv-x="279" d="M28-244q-37,0-80,11l23,97q18-7 31-11t28-4q20,0 33.5,6.5t21,26T92-60V459H200V-65q0-88-45.5-133.5T28-244ZM144,545q-31,0-51.5,21T72,618q0,28 20.5,48T144,686t51.5-20T216,618q0-31-20.5-52T144,545Z" />
      <glyph unicode="k" glyph-name="k" horiz-adv-x="501" d="M76,0V735H179V332l-2-78L352,459H485L312,267L486,0H359L266,150l-26,51l-60-65V0H76Z" />
      <glyph unicode="l" glyph-name="l" horiz-adv-x="268" d="M80,0V735H187V0H80Z" />
      <glyph unicode="m" glyph-name="m" horiz-adv-x="889" d="M71,0V459H179V376q23,49 66,72t96,23q68-1 103-24t48-61q22,39 66,62t93,23q75,0 111.5-28.5t48-82T822,230V0H713V231q0,77-15.5,114T633,382q-66,0-97-44T505,228V0H397V247q0,43-3.5,73t-21,46T313,382q-35,0-65.5-21t-49-55.5T180,228V0H71Z" />
      <glyph unicode="n" glyph-name="n" horiz-adv-x="575" d="M71,0V459H177l1-84q18,41 58.5,68.5T334,471q74,0 111-30.5T494.5,354T507,221V0H399V218q0,80-15.5,122T312,382q-29,0-60-18t-52-52t-21-84V0H71Z" />
      <glyph unicode="o" glyph-name="o" horiz-adv-x="569" d="M285-10q-72,0-126.5,32T74,109T44,231q0,66 29.5,120.5t83.5,87T285,471t128-32.5t83-87T525,231q0-67-29.5-122T412,22T285-10Zm3,88q60,0 92.5,44T413,229q0,43-16,77.5T351.5,362T282,383q-39,0-67-21t-43.5-55.5T156,229q0-42 17-76.5T219.5,98T288,78Z" />
      <glyph unicode="p" glyph-name="p" horiz-adv-x="610" d="M73-243V459H177V374q23,41 64.5,69T349,471q62,0 111-26t77.5-79T566,232q0-74-30-128.5t-80-84T344-10q-59,0-101,21T177,69V-243H73ZM319,81q68,0 101.5,43T454,229q0,65-33.5,107T319,378q-36,0-67-17t-50-49t-19-77v-7q0-44 19-77.5T252,99t67-18Z" />
      <glyph unicode="q" glyph-name="q" horiz-adv-x="613" d="M436-243V69q-24-37-67-58T267-10q-61,0-112,29.5t-81,84T44,232q0,81 30.5,134T156,445t111,26q65,0 105.5-27T436,375l1,84H541V-243H436ZM292,80q37,0 67.5,17.5t49,49.5T427,223v7q0,45-18.5,78.5t-49,52T292,379q-67,0-100.5-43T158,230q0-64 33.5-107T292,80Z" />
      <glyph unicode="r" glyph-name="r" horiz-adv-x="359" d="M68,0V459H176V369q16,45 51.5,73.5T310,471q32,0 44-6L339,356q-9,6-39,6q-25,0-54-11t-49.5-38.5T176,236V0H68Z" />
      <glyph unicode="s" glyph-name="s" horiz-adv-x="452" d="M229-10q-32,0-66.5,6t-63,15.5T56,32l36,85q17-12 51.5-27T229,75q45,0 61,13.5T306,120q0,19-13.5,29.5T254,169t-59,22q-33,14-63,32.5t-48.5,46T65,337q0,65 50,99.5T247,471q42,0 81.5-9T388,439l-39-86q-12,12-39.5,22T244,385q-71,0-71-43q0-21 15.5-33.5t41-21T285,267q61-24 93.5-55.5T411,128q0-47-25-78T319.5,4.5T229-10Z" />
      <glyph unicode="t" glyph-name="t" horiz-adv-x="343" d="M111,0V371H30v88h81V646l109,24V459H326V371H220V0H111Z" />
      <glyph unicode="u" glyph-name="u" horiz-adv-x="556" d="M230-10q-69,0-105,29T76.5,96T64,202V459H172V229q0-53 6.5-86t26-48.5T263,79q28,0 53.5,15.5t42.5,43T376,199V459H483V0H395L383,67Q358,29 321,9.5T230-10Z" />
      <glyph unicode="v" glyph-name="v" horiz-adv-x="500" d="M240,0L-2,459H121l99-207l32-83l32,83l98,207H502L261,0H240Z" />
      <glyph unicode="w" glyph-name="w" horiz-adv-x="701" d="M487,0L351,255L215,0H196L3,459H119l99-267L349,459h4L485,194l99,265H698L506,0H487Z" />
      <glyph unicode="x" glyph-name="x" horiz-adv-x="490" d="M11,0L183,238L22,459H150l94-142l89,142H464L302,244L478,0H354L245,162L141,0H11Z" />
      <glyph unicode="y" glyph-name="y" horiz-adv-x="497" d="M104-252L203-14L13,459H135l98-292l22-71l22,71L380,459H498L216-252H104Z" />
      <glyph unicode="z" glyph-name="z" horiz-adv-x="452" d="M20,0L229,337l25,36l-111-3H64v89H421L214,121L189,83l108,6H413V0H20Z" />
      <glyph unicode="{" glyph-name="braceleft" horiz-adv-x="461" d="M334-224q-70,2-109,37T186-68V127q0,62-16,91t-41.5,38T73,265v83q30,0 55.5,8T170,391.5T186,479V703q0,83 40.5,117.5T334,855q33,0 57-3l2-84q-8,3-19.5,5.5T349,776q-22,0-41.5-10T288,728V451q0-35-13.5-68t-36-55T187,302q43-4 72-41t29-94V-93q0-28 20.5-39T352-143q24,0 41,7l-2-85q-12-1-26-2t-31-1Z" />
      <glyph unicode="|" glyph-name="bar" horiz-adv-x="461" d="M183-184V827h96V-184H183Z" />
      <glyph unicode="}" glyph-name="braceright" horiz-adv-x="461" d="M127-224q-17,0-31,1t-26,2l-2,85q18-7 41-7t43.5,11T173-93V167q0,57 29,94t72,41q-28,4-51,26t-36.5,55T173,451V728q0,28-19,38t-42,10q-13,0-24.5-2.5T68,768l2,84q24,3 57,3q67,0 107.5-34.5T275,703V479q0-60 16-87.5T333,356t55-8V265q-29,0-55-9t-42-38t-16-91V-68q0-84-39-119T127-224Z" />
      <glyph unicode="~" glyph-name="asciitilde" horiz-adv-x="554" d="M357,182q-35,0-57.5,11t-38,25.5T231,244t-36,11q-22,0-48-11t-44-40L57,271q7,16 25.5,35.5t48,33.5T200,354q35,0 57-11t38-25.5T326,292t36-11q22,0 48,12t44,40l46-66q-10-30-47-57.5T357,182Z" />
      <glyph unicode="&#xa0;" glyph-name="uni00A0" horiz-adv-x="245" />
      <glyph unicode="&#xa1;" glyph-name="exclamdown" horiz-adv-x="277" d="M95,394h90l19-498H76L95,394Zm43,272q31,0 51.5-20.5T210,594q0-30-20-51t-52-21q-31,0-51.5,21T66,594q0,31 21,51.5T138,666Z" />
      <glyph unicode="&#xa2;" glyph-name="cent" horiz-adv-x="555" d="M263-184V-6Q199,5 156,39T92,122T71,227q0,92 52,155.5T263,463V643h64V469q60-1 99-18t58-33l-61-85q-7,13-31,28t-65,16V79q32,1 55,11.5T425,117l49-85Q444,13 411.5,1T327-12V-184H263Zm0,274V366q-38-16-57.5-53T186,233q0-52 19.5-89.5T263,90Z" />
      <glyph unicode="&#xa3;" glyph-name="sterling" horiz-adv-x="692" d="M102,0q26,42 52.5,94T198,201t13,107l-1,13H100v96h88q-11,32-21.5,63.5T156,553q0,63 23,106.5t60,70T320,768t86,12q64,0 114-20t77-48L542,612q-20,27-53.5,44T413,673q-34,0-64.5-10.5T299,627t-19-69q0-31 10.5-69.5T310,417H513V321H325q0-55-15-113.5T269,99H607V0H102Z" />
      <glyph unicode="&#xa4;" glyph-name="currency" horiz-adv-x="646" d="M157,2L87,73l69,70q-21,38-21,88q0,25 6.5,48T158,321L87,394l70,71l75-76q20,11 43.5,17t47.5,6q49,0 91-22l75,75l70-71l-72-73q11-19 17.5-42t6.5-48t-5.5-47T490,143l69-70L489,2L418,72q-44-25-95-25q-52,0-97,25L157,2ZM323,126q41,0 72,29.5T426,232q0,45-31,73t-72,28q-40,0-72-28t-32-74t31.5-75.5T323,126Z" />
      <glyph unicode="&#xa5;" glyph-name="yen" horiz-adv-x="686" d="M287,0V132H87v81H287V322H87v79H240L32,735H169L343,424L517,735H653L447,401H599V322H399V213H599V132H399V0H287Z" />
      <glyph unicode="&#xa6;" glyph-name="brokenbar" horiz-adv-x="461" d="M183,385V827h96V385H183Zm0-569V258h96V-184H183Z" />
      <glyph unicode="&#xa7;" glyph-name="section" horiz-adv-x="554" d="M264-189q-42,0-82.5,9T110-156.5T63-127l52,97q11-9 34.5-22t54-22.5T264-84q48,0 82.5,22.5T381,7q0,38-20,63.5t-51.5,44t-68,36.5T171,191q-39,28-68.5,73T73,380q0,57 23,97t61,64q-34,26-57.5,66T76,708q0,67 30.5,110.5t81,64.5T298,904q71,0 113-21t62-38l-52-93q-18,18-52,34t-76,16t-74-23t-32-68q0-39 26-66t66-48.5T362,552t76-53q27-26 44.5-64.5T500,348q0-58-22.5-101T416,178q11-7 20-17q27-25 44.5-60.5T498,20q0-68-31-115t-83.5-70.5T264-189Zm64,423q28,13 41.5,40T383,335q0,39-18.5,65T316,445.5T251,483q-66-23-66-99q0-36 20.5-62T259,275.5T328,234Z" />
      <glyph unicode="&#xa8;" glyph-name="dieresis" horiz-adv-x="446" d="M343,545q-30,0-51,21t-21,51q0,29 20.5,50T343,688t52-21t21-50q0-30-21-51t-52-21Zm-241,0q-30,0-51,21T30,617q0,29 20.5,50T102,688q32,0 52-21t20-50q0-30-20.5-51T102,545Z" />
      <glyph unicode="&#xa9;" glyph-name="copyright" horiz-adv-x="838" d="M424-8Q348-8 280.5,20t-119,78T81,216T52,365T81,513t80.5,116T280,705t143,27t142-27t115.5-76T758,513t28-148T758,216T680.5,98t-115-78T424-8Zm-1,57q63,0 117.5,23.5t95.5,66T700,239t23,126q0,91-40,161T575,635.5T423,675q-63,0-119-22.5t-98-64T140,490T116,365t24-126t66.5-100.5t98-66T423,49Zm25,115q-66,0-114,26t-74,71.5T234,363q0,57 26.5,102T334,536t108,26q72,0 94-13V456q-8,6-27,11.5T449,473q-61,0-87-28t-26-81q0-55 26.5-85T449,249q34,0 59.5,5T542,264V182q-10-9-38.5-13.5T448,164Z" />
      <glyph unicode="&#xaa;" glyph-name="ordfeminine" horiz-adv-x="562" d="M242,434q-48,0-84,24t-55.5,66T83,620q0,89 40.5,142T241,815q36,0 68.5-18.5T348,750h5v57H454V439H353v47h-5q-10-27-40.5-39.5T242,434Zm21,81q31,0 51,17.5t30,42T354,620q0,20-10,46t-30,45.5T263,731q-38,0-61.5-29.5T178,619q0-45 24-74.5T263,515Z" />
      <glyph unicode="&#xab;" glyph-name="guillemotleft" horiz-adv-x="745" d="M603,57L351,309L603,562l62-75L496,308L661,126L603,57ZM312,57L60,309L312,562l62-75L205,308L370,126L312,57Z" />
      <glyph unicode="&#xac;" glyph-name="logicalnot" horiz-adv-x="828" d="M598,92V275H94v92H699V92H598Z" />
      <glyph unicode="&#xae;" glyph-name="registered" horiz-adv-x="838" d="M424-8Q348-8 280.5,20t-119,78T81,216T52,365T81,513t80.5,116T280,705t143,27t142-27t115.5-76T758,513t28-148T758,216T680.5,98t-115-78T424-8Zm-1,57q63,0 117.5,23.5t95.5,66T700,239t23,126q0,91-40,161T575,635.5T423,675q-63,0-119-22.5t-98-64T140,490T116,365t24-126t66.5-100.5t98-66T423,49ZM271,170V563H428q83,0 122.5-34T590,432q0-24-5.5-49.5t-25.5-46T497,306L598,170H484L403,296H359V170H271Zm88,196h61q45,0 61,16.5T497,430t-15.5,49.5T422,498H359V366Z" />
      <glyph unicode="&#xaf;" glyph-name="macron" horiz-adv-x="400" d="M30,563v82H370V563H30Z" />
      <glyph unicode="&#xb0;" glyph-name="degree" horiz-adv-x="553" d="M277,537q-47,0-87.5,20.5T125,616t-24,88t24,88t64.5,59T277,872q48,0 88-21.5T429,791t24-87q0-50-24-87.5T365,558t-88-21Zm0,79q35,0 56,24t21,64q0,38-21,63t-56,25q-36,0-56-25t-20-63q0-40 20-64t56-24Z" />
      <glyph unicode="&#xb1;" glyph-name="plusminus" horiz-adv-x="647" d="M85,0V92H274V276H85v92H274V552h97V368H561V276H371V92H561V0H85Z" />
      <glyph unicode="&#xb2;" glyph-name="uni00B2" horiz-adv-x="450" d="M28,357L212,556q13,17 29.5,40.5T270,643t12,38q0,23-15.5,37T216,732q-22,0-38.5-11.5t-28-26.5T130,666L43,705q8,21 31,48.5t59.5,48T220,822q75,0 119-36t44-98q0-39-22-83.5T302,519q-17-19-34-37.5T234,443H403V357H28Z" />
      <glyph unicode="&#xb3;" glyph-name="uni00B3" horiz-adv-x="440" d="M189,351q-40,0-85,11.5T25,396l44,81q19-13 51.5-26T185,438q37,0 66.5,13T281,502q0,29-25.5,45T185,563q-13,0-36.5-2.5T92,553L217,730H52v86H405L266,636q59-9 92-45t33-84q0-67-52.5-111.5T189,351Z" />
      <glyph unicode="&#xb4;" glyph-name="acute" horiz-adv-x="308" d="M103,535L30,576L183,805l95-61L103,535Z" />
      <glyph unicode="&#xb5;" glyph-name="uni00B5" horiz-adv-x="646" d="M106-173V463H217V216q0-65 18-100t78-35q57,0 86.5,34T429,228V463H541V-7H429V56Q407,27 372.5,6T294-15q-21,0-41,6T217,9V-173H106Z" />
      <glyph unicode="&#xb6;" glyph-name="paragraph" horiz-adv-x="830" d="M293-93V330q-61,2-106.5,30T116,434T91,535q0,59 26.5,104.5t72.5,71T293,736H732V642H642V-93H536V642H399V-93H293Z" />
      <glyph unicode="&#xb7;" glyph-name="periodcentered" horiz-adv-x="460" d="M229,275q-30,0-50.5,21T158,348q0,30 20,50.5T229,419q32,0 53-20.5T303,348q0-31-21-52t-53-21Z" />
      <glyph unicode="&#xb8;" glyph-name="cedilla" horiz-adv-x="265" d="M84-264q-15,0-30,2t-24,3l9,93q14-2 28-2q40,0 55.5,12.5T138-123q0,16-9,29.5T111-65t-9,35q0,17 3.5,22.5T110,0l28,6l43-6q0-18 13.5-34t27-37.5T235-130q0-73-42.5-103.5T84-264Z" />
      <glyph unicode="&#xb9;" glyph-name="uni00B9" horiz-adv-x="264" d="M81,357V800l102,25V357H81Z" />
      <glyph unicode="&#xba;" glyph-name="ordmasculine" horiz-adv-x="543" d="M272,433q-51,0-93.5,22t-68,64.5T85,623t25.5,104t68,66T272,816q53,0 95-23t67-66t25-104T433.5,519.5T366,455t-94-22Zm-1,83q38,0 63.5,27.5T360,623q0,50-25.5,79T271,731q-36,0-61.5-28T184,623t25.5-79.5T271,516Z" />
      <glyph unicode="&#xbb;" glyph-name="guillemotright" horiz-adv-x="744" d="M432,57l-58,69L539,308L370,487l62,75L684,309L432,57ZM142,57L84,126L249,308L80,487l62,75L394,309L142,57Z" />
      <glyph unicode="&#xbc;" glyph-name="onequarter" horiz-adv-x="865" d="M81,337V780l102,25V337H81ZM88,0L491,748H591L189,0H88ZM662,0V107H432L580,481l97-34L581,195h81v96H768V195h67V107H768V0H662Z" />
      <glyph unicode="&#xbd;" glyph-name="onehalf" horiz-adv-x="877" d="M81,337V780l102,25V337H81ZM88,0L491,748H591L189,0H88ZM455,0L639,199q13,17 29.5,40.5T697,286t12,38q0,23-15.5,37T643,375q-22,0-38.5-11.5t-28-26.5T557,309l-87,39q8,21 31,48.5t59.5,48T647,465q75,0 119-36t44-98q0-39-22-83.5T729,162q-17-19-34-37.5T661,86H830V0H455Z" />
      <glyph unicode="&#xbe;" glyph-name="threequarters" horiz-adv-x="1035" d="M189,331q-40,0-85,11.5T25,376l44,81q19-13 51.5-26T185,418q37,0 66.5,13T281,482q0,29-25.5,45T185,543q-13,0-36.5-2.5T92,533L217,710H52v86H405L266,616q59-9 92-45t33-84q0-67-52.5-111.5T189,331ZM258,0L661,748H761L359,0H258ZM832,0V107H602L750,481l97-34L751,195h81v96H938V195h67V107H938V0H832Z" />
      <glyph unicode="&#xbf;" glyph-name="questiondown" horiz-adv-x="519" d="M346,428q0,0 3-13t3-33q0-42-18-71t-44.5-51.5t-53.5-44t-45-48T173,103q0-39 28-66.5T281,9q34,0 56.5,13.5T373,53t16,27L489,30q-4-7-15.5-26.5T438-38T374.5-76T275-92q-66,0-115.5,25T82,0T54,93q0,53 19,89t47.5,60.5T177,288t47,43.5T243,385q0,16-1,29.5T241,428H346ZM284,665q32,0 52-20.5T356,594q0-31-20-51.5T284,522q-30,0-51,20.5T212,594q0,30 21,50.5T284,665Z" />
      <glyph unicode="&#xc0;" glyph-name="Agrave" horiz-adv-x="685" d="M336,736h11L701,0H572L509,144H172L109,0H-16L336,736Zm5-213L297,423L217,245H465L386,422L343,523h-2Zm39,268L167,923l60,83L423,857l-43-66Z" />
      <glyph unicode="&#xc1;" glyph-name="Aacute" horiz-adv-x="685" d="M336,736h11L701,0H572L509,144H172L109,0H-16L336,736Zm5-213L297,423L217,245H465L386,422L343,523h-2ZM302,791l-43,66l196,149l60-83L302,791Z" />
      <glyph unicode="&#xc2;" glyph-name="Acircumflex" horiz-adv-x="685" d="M336,736h11L701,0H572L509,144H172L109,0H-16L336,736Zm5-213L297,423L217,245H465L386,422L343,523h-2ZM206,793l-55,54l190,154L530,847l-54-54L341,880L206,793Z" />
      <glyph unicode="&#xc3;" glyph-name="Atilde" horiz-adv-x="685" d="M336,736h11L701,0H572L509,144H172L109,0H-16L336,736Zm5-213L297,423L217,245H465L386,422L343,523h-2Zm67,293q-31,0-49.5,9.5t-32.5,22t-28.5,22T260,879q-19,0-28.5-13T208,822l-43,67q8,33 40,58.5T275,973q33,0 53-9.5T361,941t26-22.5t32-9.5q20,0 36,10.5T481,955l38-58q-5-37-39-59t-72-22Z" />
      <glyph unicode="&#xc4;" glyph-name="Adieresis" horiz-adv-x="685" d="M336,736h11L701,0H572L509,144H172L109,0H-16L336,736Zm5-213L297,423L217,245H465L386,422L343,523h-2ZM461,810q-30,0-51,21t-21,50q0,30 20.5,50.5T461,952t52-20.5T534,881q0-29-21-50t-52-21Zm-241,0q-30,0-51,21t-21,50q0,30 20.5,50.5T220,952q32,0 52-20.5T292,881q0-29-20.5-50T220,810Z" />
      <glyph unicode="&#xc5;" glyph-name="Aring" horiz-adv-x="685" d="M336,736h11L701,0H572L509,144H172L109,0H-16L336,736Zm5-213L297,423L217,245H465L386,422L343,523h-2Zm0,246q-39,0-73,16.5T213.5,831T193,899t20.5,67.5t54.5,44t73,15.5q40,0 73.5-16t54-44.5T489,899t-20.5-67.5t-54-46T341,769Zm0,72q24,0 42,16.5T401,899t-18,40t-42,15q-25,0-42-15t-17-40t17-41.5T341,841Z" />
      <glyph unicode="&#xc6;" glyph-name="AE" horiz-adv-x="815" d="M-43,0L450,735H757V637H559V438H716V335H559V99H780V0H450V186H212L94,0H-43ZM273,281H450V572l-34-61L273,281Z" />
      <glyph unicode="&#xc7;" glyph-name="Ccedilla" horiz-adv-x="649" d="M412-7Q324-7 255.5,23t-116,82.5t-72,120T43,369q0,83 27.5,152T148,640.5T267,719t152,28q54,0 96-11t69-24.5T618,690L569,590q-27,24-66.5,39T410,644q-69,0-124.5-34t-88-96T165,367q0-75 28-136.5T275.5,132T408,95q43,0 84.5,11.5T578,145l33-95q-13-12-44-25.5T495.5,2T412-7ZM344-254q-15,0-30,2t-24,3l9,93q14-2 28-2q40,0 55.5,12.5T398-113q0,16-9,29.5T371-55t-9,35q0,17 3.5,22.5T370,10l28,6l43-6q0-18 13.5-34t27-37.5T495-120q0-73-42.5-103.5T344-254Z" />
      <glyph unicode="&#xc8;" glyph-name="Egrave" horiz-adv-x="467" d="M77,0V735H399V637H188V434H358V334H188V99H432V0H77ZM295,791L82,923l60,83L338,857l-43-66Z" />
      <glyph unicode="&#xc9;" glyph-name="Eacute" horiz-adv-x="467" d="M77,0V735H399V637H188V434H358V334H188V99H432V0H77ZM217,791l-43,66l196,149l60-83L217,791Z" />
      <glyph unicode="&#xca;" glyph-name="Ecircumflex" horiz-adv-x="467" d="M77,0V735H399V637H188V434H358V334H188V99H432V0H77Zm44,793L66,847l190,154L445,847l-54-54L256,880L121,793Z" />
      <glyph unicode="&#xcb;" glyph-name="Edieresis" horiz-adv-x="467" d="M77,0V735H399V637H188V434H358V334H188V99H432V0H77ZM376,810q-30,0-51,21t-21,50q0,30 20.5,50.5T376,952t52-20.5T449,881q0-29-21-50t-52-21Zm-241,0q-30,0-51,21T63,881q0,30 20.5,50.5T135,952q32,0 52-20.5T207,881q0-29-20.5-50T135,810Z" />
      <glyph unicode="&#xcc;" glyph-name="Igrave" horiz-adv-x="294" d="M91,0V735H203V0H91Zm95,791L-27,923l60,83L229,857l-43-66Z" />
      <glyph unicode="&#xcd;" glyph-name="Iacute" horiz-adv-x="294" d="M91,0V735H203V0H91Zm17,791L65,857l196,149l60-83L108,791Z" />
      <glyph unicode="&#xce;" glyph-name="Icircumflex" horiz-adv-x="294" d="M91,0V735H203V0H91ZM12,793l-55,54l190,154L336,847l-54-54L147,880L12,793Z" />
      <glyph unicode="&#xcf;" glyph-name="Idieresis" horiz-adv-x="294" d="M91,0V735H203V0H91ZM267,810q-30,0-51,21t-21,50q0,30 20.5,50.5T267,952t52-20.5T340,881q0-29-21-50t-52-21ZM26,810q-30,0-51,21t-21,50q0,30 20.5,50.5T26,952q32,0 52-20.5T98,881q0-29-20.5-50T26,810Z" />
      <glyph unicode="&#xd0;" glyph-name="Eth" horiz-adv-x="736" d="M98,0V329H20V431H98V735H233q131,0 217-30t136-81t70.5-115T677,377q0-81-22-150T582.5,107t-136-79T233,0H98ZM210,99h54q112,0 176.5,33.5t92,94T560,369q0,125-69,196.5T264,637H210V431H352V329H210V99Z" />
      <glyph unicode="&#xd1;" glyph-name="Ntilde" horiz-adv-x="710" d="M617,0L187,476l3-80V0H78V736H92L524,254l-4,84V735H632V0H617ZM415,816q-31,0-49.5,9.5t-32.5,22t-28.5,22T267,879q-19,0-28.5-13T215,822l-43,67q8,33 40,58.5T282,973q33,0 53-9.5T368,941t26-22.5t32-9.5q20,0 36,10.5T488,955l38-58q-5-37-39-59t-72-22Z" />
      <glyph unicode="&#xd2;" glyph-name="Ograve" horiz-adv-x="832" d="M416-10q-75,0-141.5,26T157,91.5T76.5,211T47,369q0,89 29.5,159t81,119t118,74.5T416,747t140.5-25.5t118-74.5t81-119T785,369q0-88-29.5-158T675,91.5T557.5,16T416-10Zm0,101q68,0 125,32t91,93.5T666,368q0,91-34,152.5t-90.5,93T416,645T290.5,613.5t-90.5-93T166,368q0-90 35-151.5T293,123T416,91Zm39,700L242,923l60,83L498,857l-43-66Z" />
      <glyph unicode="&#xd3;" glyph-name="Oacute" horiz-adv-x="832" d="M416-10q-75,0-141.5,26T157,91.5T76.5,211T47,369q0,89 29.5,159t81,119t118,74.5T416,747t140.5-25.5t118-74.5t81-119T785,369q0-88-29.5-158T675,91.5T557.5,16T416-10Zm0,101q68,0 125,32t91,93.5T666,368q0,91-34,152.5t-90.5,93T416,645T290.5,613.5t-90.5-93T166,368q0-90 35-151.5T293,123T416,91ZM377,791l-43,66l196,149l60-83L377,791Z" />
      <glyph unicode="&#xd4;" glyph-name="Ocircumflex" horiz-adv-x="832" d="M416-10q-75,0-141.5,26T157,91.5T76.5,211T47,369q0,89 29.5,159t81,119t118,74.5T416,747t140.5-25.5t118-74.5t81-119T785,369q0-88-29.5-158T675,91.5T557.5,16T416-10Zm0,101q68,0 125,32t91,93.5T666,368q0,91-34,152.5t-90.5,93T416,645T290.5,613.5t-90.5-93T166,368q0-90 35-151.5T293,123T416,91ZM281,793l-55,54l190,154L605,847l-54-54L416,880L281,793Z" />
      <glyph unicode="&#xd5;" glyph-name="Otilde" horiz-adv-x="832" d="M416-10q-75,0-141.5,26T157,91.5T76.5,211T47,369q0,89 29.5,159t81,119t118,74.5T416,747t140.5-25.5t118-74.5t81-119T785,369q0-88-29.5-158T675,91.5T557.5,16T416-10Zm0,101q68,0 125,32t91,93.5T666,368q0,91-34,152.5t-90.5,93T416,645T290.5,613.5t-90.5-93T166,368q0-90 35-151.5T293,123T416,91Zm67,725q-31,0-49.5,9.5t-32.5,22t-28.5,22T335,879q-19,0-28.5-13T283,822l-43,67q8,33 40,58.5T350,973q33,0 53-9.5T436,941t26-22.5t32-9.5q20,0 36,10.5T556,955l38-58q-5-37-39-59t-72-22Z" />
      <glyph unicode="&#xd6;" glyph-name="Odieresis" horiz-adv-x="832" d="M416-10q-75,0-141.5,26T157,91.5T76.5,211T47,369q0,89 29.5,159t81,119t118,74.5T416,747t140.5-25.5t118-74.5t81-119T785,369q0-88-29.5-158T675,91.5T557.5,16T416-10Zm0,101q68,0 125,32t91,93.5T666,368q0,91-34,152.5t-90.5,93T416,645T290.5,613.5t-90.5-93T166,368q0-90 35-151.5T293,123T416,91ZM536,810q-30,0-51,21t-21,50q0,30 20.5,50.5T536,952t52-20.5T609,881q0-29-21-50t-52-21Zm-241,0q-30,0-51,21t-21,50q0,30 20.5,50.5T295,952q32,0 52-20.5T367,881q0-29-20.5-50T295,810Z" />
      <glyph unicode="&#xd7;" glyph-name="multiply" horiz-adv-x="646" d="M474,104L324,253L179,108l-68,69L256,321L107,470l66,65L321,387L466,531l68-68L389,318L539,169l-65-65Z" />
      <glyph unicode="&#xd8;" glyph-name="Oslash" horiz-adv-x="829" d="M235-109L178-83L232,36Q149,81 97.5,166T46,369q0,89 29.5,159t81,119t118,74.5T415,747q67,0 129-21l46,102l56-25L600,701q81-45 132.5-129.5T784,369q0-88-29.5-158T674,91.5T556.5,16T415-10q-66,0-126,21L235-109ZM165,368q0-83 30.5-142.5T276,133L501,631q-40,14-86,14q-69,0-125.5-31.5t-90.5-93T165,368ZM415,91q68,0 125,32t91,93.5T665,368q0,84-30,143.5T556,604L331,105q40-14 84-14Z" />
      <glyph unicode="&#xd9;" glyph-name="Ugrave" horiz-adv-x="662" d="M331-10q-96,0-153.5,39t-83,112T69,314V735H181V312q0-117 35.5-167.5T331,94t114,49t35,169V735H593V314q0-154-64-239T331-10Zm43,801L161,923l60,83L417,857l-43-66Z" />
      <glyph unicode="&#xda;" glyph-name="Uacute" horiz-adv-x="662" d="M331-10q-96,0-153.5,39t-83,112T69,314V735H181V312q0-117 35.5-167.5T331,94t114,49t35,169V735H593V314q0-154-64-239T331-10ZM296,791l-43,66l196,149l60-83L296,791Z" />
      <glyph unicode="&#xdb;" glyph-name="Ucircumflex" horiz-adv-x="662" d="M331-10q-96,0-153.5,39t-83,112T69,314V735H181V312q0-117 35.5-167.5T331,94t114,49t35,169V735H593V314q0-154-64-239T331-10ZM200,793l-55,54l190,154L524,847l-54-54L335,880L200,793Z" />
      <glyph unicode="&#xdc;" glyph-name="Udieresis" horiz-adv-x="662" d="M331-10q-96,0-153.5,39t-83,112T69,314V735H181V312q0-117 35.5-167.5T331,94t114,49t35,169V735H593V314q0-154-64-239T331-10ZM455,810q-30,0-51,21t-21,50q0,30 20.5,50.5T455,952t52-20.5T528,881q0-29-21-50t-52-21Zm-241,0q-30,0-51,21t-21,50q0,30 20.5,50.5T214,952q32,0 52-20.5T286,881q0-29-20.5-50T214,810Z" />
      <glyph unicode="&#xdd;" glyph-name="Yacute" horiz-adv-x="589" d="M239,0V343L-16,735H118L295,445L472,735H605L351,341V0H239Zm17,791l-43,66l196,149l60-83L256,791Z" />
      <glyph unicode="&#xde;" glyph-name="Thorn" horiz-adv-x="554" d="M103,0V736H217V598h19q106,0 171.5-28.5t96-78T534,378q0-117-73-180T234,135H215V0H103ZM215,234h41q68,0 102,21t46,51.5T416,366q0,35-12.5,65T357,480t-99,19H215V234Z" />
      <glyph unicode="&#xdf;" glyph-name="germandbls" horiz-adv-x="593" d="M85-92V371H37v88H85v18q0,48 12.5,96t40,87t73,63T322,747q74,0 114-27t56-68.5T508,567q0-52-27.5-93.5T407,406q47-10 79.5-37.5t49.5-66T553,220q0-40-13.5-79T495,70T413.5,19T288,0H252V93h47q56,0 87.5,20.5t44,50T443,221q0,40-19.5,70T371,338t-74,17H272v79q47,0 75,20t41,49t13,56q0,23-6.5,45T370,640.5T318,655q-64,0-95-54T192,430V-92H85Z" />
      <glyph unicode="&#xe0;" glyph-name="agrave" horiz-adv-x="615" d="M274-10q-61,0-113.5,29T76,102T44,231q0,72 27.5,126t78,84T270,471q42,0 76.5-14.5t58-35T436,382l2,77H541V0H439l-2,81q-10-22-33.5-43T347,3.5T274-10Zm18,90q37,0 67.5,17.5t49,49.5T427,223v7q0,45-18.5,78.5t-49,52T292,379q-67,0-100.5-43T158,230q0-64 33.5-107T292,80Zm4,461L121,750l95,61L369,582l-73-41Z" />
      <glyph unicode="&#xe1;" glyph-name="aacute" horiz-adv-x="615" d="M274-10q-61,0-113.5,29T76,102T44,231q0,72 27.5,126t78,84T270,471q42,0 76.5-14.5t58-35T436,382l2,77H541V0H439l-2,81q-10-22-33.5-43T347,3.5T274-10Zm18,90q37,0 67.5,17.5t49,49.5T427,223v7q0,45-18.5,78.5t-49,52T292,379q-67,0-100.5-43T158,230q0-64 33.5-107T292,80Zm0,455l-73,41L372,805l95-61L292,535Z" />
      <glyph unicode="&#xe2;" glyph-name="acircumflex" horiz-adv-x="615" d="M274-10q-61,0-113.5,29T76,102T44,231q0,72 27.5,126t78,84T270,471q42,0 76.5-14.5t58-35T436,382l2,77H541V0H439l-2,81q-10-22-33.5-43T347,3.5T274-10Zm18,90q37,0 67.5,17.5t49,49.5T427,223v7q0,45-18.5,78.5t-49,52T292,379q-67,0-100.5-43T158,230q0-64 33.5-107T292,80ZM179,535l-65,54L293,795L472,589l-64-54L293,674L179,535Z" />
      <glyph unicode="&#xe3;" glyph-name="atilde" horiz-adv-x="615" d="M274-10q-61,0-113.5,29T76,102T44,231q0,72 27.5,126t78,84T270,471q42,0 76.5-14.5t58-35T436,382l2,77H541V0H439l-2,81q-10-22-33.5-43T347,3.5T274-10Zm18,90q37,0 67.5,17.5t49,49.5T427,223v7q0,45-18.5,78.5t-49,52T292,379q-67,0-100.5-43T158,230q0-64 33.5-107T292,80Zm65,464q-33,0-49.5,10.5T278,579q-10,12-22,20t-32,8q-16,0-33.5-13T159,550l-46,70q5,17 18.5,36T168,688t54,13q32,0 49.5-10.5T302,666q12-13 25-21t32-8q16,0 35.5,13.5T427,696l46-71q-3-15-19.5-34t-41-33T357,544Z" />
      <glyph unicode="&#xe4;" glyph-name="adieresis" horiz-adv-x="615" d="M274-10q-61,0-113.5,29T76,102T44,231q0,72 27.5,126t78,84T270,471q42,0 76.5-14.5t58-35T436,382l2,77H541V0H439l-2,81q-10-22-33.5-43T347,3.5T274-10Zm18,90q37,0 67.5,17.5t49,49.5T427,223v7q0,45-18.5,78.5t-49,52T292,379q-67,0-100.5-43T158,230q0-64 33.5-107T292,80ZM413,545q-30,0-51,21t-21,51q0,29 20.5,50T413,688t52-21t21-50q0-30-21-51t-52-21Zm-241,0q-30,0-51,21t-21,51q0,29 20.5,50T172,688q32,0 52-21t20-50q0-30-20.5-51T172,545Z" />
      <glyph unicode="&#xe5;" glyph-name="aring" horiz-adv-x="615" d="M274-10q-61,0-113.5,29T76,102T44,231q0,72 27.5,126t78,84T270,471q42,0 76.5-14.5t58-35T436,382l2,77H541V0H439l-2,81q-10-22-33.5-43T347,3.5T274-10Zm18,90q37,0 67.5,17.5t49,49.5T427,223v7q0,45-18.5,78.5t-49,52T292,379q-67,0-100.5-43T158,230q0-64 33.5-107T292,80Zm0,439q-39,0-73,17t-55,47.5T143,655t21,71.5t55,48T292,792q40,0 74-17.5T421,726t21-71t-21-71t-55-48t-74-17Zm0,73q24,0 41.5,17T351,655t-17,46t-42,17q-24,0-40.5-17T235,655t17-46t40-17Z" />
      <glyph unicode="&#xe6;" glyph-name="ae" horiz-adv-x="895" d="M254-10q-61,0-108.5,29T71,102T44,231q0,72 26.5,126T144,441t106,30q63,0 105-33.5T416,356l2,103h82V391q26,40 64.5,60T644,471q109,0 159-60.5T853,248q0-27-3-56H520q11-62 44.5-88.5T654,77q54,0 85,10t51,20l33-77Q803,17 761,3.5T651-10q-57,0-93.5,28.5T500,87V0H428L408,123q-11-59-52.5-96T254-10ZM520,267H748q1,65-29,89t-78,24q-50,0-81.5-26.5T520,267ZM272,80q37,0 67.5,22t49,58.5T407,241v7q0,39-18.5,68.5t-49,46T272,379q-59,0-86.5-43T158,230q0-64 27-107t87-43Z" />
      <glyph unicode="&#xe7;" glyph-name="ccedilla" horiz-adv-x="466" d="M285-10q-67,0-121.5,29t-87,84T44,235q0,72 29.5,125t83,82T280,471q58,0 95.5-15T432,424l-48-87q-4,5-16,15t-31.5,18.5T289,379q-66,0-98.5-40T158,236q0-73 34.5-114.5T289,80q33,0 62,9.5T395,110l39-76Q416,20 377,5T285-10ZM167-264q-15,0-30,2t-24,3l9,93q14-2 28-2q40,0 55.5,12.5T221-123q0,16-9,29.5T194-65t-9,35q0,17 3.5,22.5T193,0l28,6l43-6q0-18 13.5-34t27-37.5T318-130q0-73-42.5-103.5T167-264Z" />
      <glyph unicode="&#xe8;" glyph-name="egrave" horiz-adv-x="532" d="M288-10q-86,0-140,33.5T69,112T44,229q0,75 30.5,129T159,441.5T281,471q109,0 159-60.5T490,248q0-27-3-56H157q11-62 44.5-88.5T291,77q54,0 85,10t51,20l33-77Q440,17 398,3.5T288-10ZM157,267H385q1,65-29,89t-78,24q-50,0-81.5-26.5T157,267ZM275,541L100,750l95,61L348,582l-73-41Z" />
      <glyph unicode="&#xe9;" glyph-name="eacute" horiz-adv-x="532" d="M288-10q-86,0-140,33.5T69,112T44,229q0,75 30.5,129T159,441.5T281,471q109,0 159-60.5T490,248q0-27-3-56H157q11-62 44.5-88.5T291,77q54,0 85,10t51,20l33-77Q440,17 398,3.5T288-10ZM157,267H385q1,65-29,89t-78,24q-50,0-81.5-26.5T157,267ZM271,535l-73,41L351,805l95-61L271,535Z" />
      <glyph unicode="&#xea;" glyph-name="ecircumflex" horiz-adv-x="532" d="M288-10q-86,0-140,33.5T69,112T44,229q0,75 30.5,129T159,441.5T281,471q109,0 159-60.5T490,248q0-27-3-56H157q11-62 44.5-88.5T291,77q54,0 85,10t51,20l33-77Q440,17 398,3.5T288-10ZM157,267H385q1,65-29,89t-78,24q-50,0-81.5-26.5T157,267Zm1,268L93,589L272,795L451,589l-64-54L272,674L158,535Z" />
      <glyph unicode="&#xeb;" glyph-name="edieresis" horiz-adv-x="532" d="M288-10q-86,0-140,33.5T69,112T44,229q0,75 30.5,129T159,441.5T281,471q109,0 159-60.5T490,248q0-27-3-56H157q11-62 44.5-88.5T291,77q54,0 85,10t51,20l33-77Q440,17 398,3.5T288-10ZM157,267H385q1,65-29,89t-78,24q-50,0-81.5-26.5T157,267ZM392,545q-30,0-51,21t-21,51q0,29 20.5,50T392,688t52-21t21-50q0-30-21-51t-52-21Zm-241,0q-30,0-51,21T79,617q0,29 20.5,50T151,688q32,0 52-21t20-50q0-30-20.5-51T151,545Z" />
      <glyph unicode="&#xec;" glyph-name="igrave" horiz-adv-x="270" d="M79,0V459H191V0H79Zm59,541L-37,750l95,61L211,582l-73-41Z" />
      <glyph unicode="&#xed;" glyph-name="iacute" horiz-adv-x="270" d="M79,0V459H191V0H79Zm55,535L61,576L214,805l95-61L134,535Z" />
      <glyph unicode="&#xee;" glyph-name="icircumflex" horiz-adv-x="270" d="M79,0V459H191V0H79ZM21,535l-65,54L135,795L314,589l-64-54L135,674L21,535Z" />
      <glyph unicode="&#xef;" glyph-name="idieresis" horiz-adv-x="270" d="M79,0V459H191V0H79ZM255,545q-30,0-51,21t-21,51q0,29 20.5,50T255,688t52-21t21-50q0-30-21-51t-52-21ZM14,545q-30,0-51,21t-21,51q0,29 20.5,50T14,688q32,0 52-21t20-50q0-30-20.5-51T14,545Z" />
      <glyph unicode="&#xf0;" glyph-name="eth" horiz-adv-x="565" d="M287-9Q219-9 163.5,19.5T76,99.5T44,219q0,73 31,125t83,79.5T273,451q48,0 81-11.5T408,411q-19,51-52,97t-84,89l-61-67l-52,52l60,60q-25,21-48.5,38T118,713l46,59q27-14 54-31t54-36l61,69l53-52l-56-63q52-37 95.5-93T496,438t27-157q0-103-30.5-167t-84-93.5T287-9Zm0,92q34,0 64,17t49,50.5T419,231q0,16-3,40t-8,43q-28,29-57,37t-73,8q-57,0-88-33.5T159,219t38-104.5T287,83Z" />
      <glyph unicode="&#xf1;" glyph-name="ntilde" horiz-adv-x="575" d="M71,0V459H177l1-84q18,41 58.5,68.5T334,471q74,0 111-30.5T494.5,354T507,221V0H399V218q0,80-15.5,122T312,382q-29,0-60-18t-52-52t-21-84V0H71ZM372,544q-33,0-49.5,10.5T293,579q-10,12-22,20t-32,8q-16,0-33.5-13T174,550l-46,70q5,17 18.5,36T183,688t54,13q32,0 49.5-10.5T317,666q12-13 25-21t32-8q16,0 35.5,13.5T442,696l46-71q-3-15-19.5-34t-41-33T372,544Z" />
      <glyph unicode="&#xf2;" glyph-name="ograve" horiz-adv-x="569" d="M285-10q-72,0-126.5,32T74,109T44,231q0,66 29.5,120.5t83.5,87T285,471t128-32.5t83-87T525,231q0-67-29.5-122T412,22T285-10Zm3,88q60,0 92.5,44T413,229q0,43-16,77.5T351.5,362T282,383q-39,0-67-21t-43.5-55.5T156,229q0-42 17-76.5T219.5,98T288,78Zm0,463L113,750l95,61L361,582l-73-41Z" />
      <glyph unicode="&#xf3;" glyph-name="oacute" horiz-adv-x="569" d="M285-10q-72,0-126.5,32T74,109T44,231q0,66 29.5,120.5t83.5,87T285,471t128-32.5t83-87T525,231q0-67-29.5-122T412,22T285-10Zm3,88q60,0 92.5,44T413,229q0,43-16,77.5T351.5,362T282,383q-39,0-67-21t-43.5-55.5T156,229q0-42 17-76.5T219.5,98T288,78Zm-4,457l-73,41L364,805l95-61L284,535Z" />
      <glyph unicode="&#xf4;" glyph-name="ocircumflex" horiz-adv-x="569" d="M285-10q-72,0-126.5,32T74,109T44,231q0,66 29.5,120.5t83.5,87T285,471t128-32.5t83-87T525,231q0-67-29.5-122T412,22T285-10Zm3,88q60,0 92.5,44T413,229q0,43-16,77.5T351.5,362T282,383q-39,0-67-21t-43.5-55.5T156,229q0-42 17-76.5T219.5,98T288,78ZM171,535l-65,54L285,795L464,589l-64-54L285,674L171,535Z" />
      <glyph unicode="&#xf5;" glyph-name="otilde" horiz-adv-x="569" d="M285-10q-72,0-126.5,32T74,109T44,231q0,66 29.5,120.5t83.5,87T285,471t128-32.5t83-87T525,231q0-67-29.5-122T412,22T285-10Zm3,88q60,0 92.5,44T413,229q0,43-16,77.5T351.5,362T282,383q-39,0-67-21t-43.5-55.5T156,229q0-42 17-76.5T219.5,98T288,78Zm61,466q-33,0-49.5,10.5T270,579q-10,12-22,20t-32,8q-16,0-33.5-13T151,550l-46,70q5,17 18.5,36T160,688t54,13q32,0 49.5-10.5T294,666q12-13 25-21t32-8q16,0 35.5,13.5T419,696l46-71q-3-15-19.5-34t-41-33T349,544Z" />
      <glyph unicode="&#xf6;" glyph-name="odieresis" horiz-adv-x="569" d="M285-10q-72,0-126.5,32T74,109T44,231q0,66 29.5,120.5t83.5,87T285,471t128-32.5t83-87T525,231q0-67-29.5-122T412,22T285-10Zm3,88q60,0 92.5,44T413,229q0,43-16,77.5T351.5,362T282,383q-39,0-67-21t-43.5-55.5T156,229q0-42 17-76.5T219.5,98T288,78ZM405,545q-30,0-51,21t-21,51q0,29 20.5,50T405,688t52-21t21-50q0-30-21-51t-52-21Zm-241,0q-30,0-51,21T92,617q0,29 20.5,50T164,688q32,0 52-21t20-50q0-30-20.5-51T164,545Z" />
      <glyph unicode="&#xf7;" glyph-name="divide" horiz-adv-x="555" d="M277,459q-31,0-51.5,22T205,531q0,31 20.5,52.5T277,605t52-21.5T350,531q0-28-21.5-50T277,459ZM91,276v92H463V276H91ZM277,39q-31,0-51.5,21T205,111t20.5,51.5T277,184t52-21.5T350,111T328.5,60T277,39Z" />
      <glyph unicode="&#xf8;" glyph-name="oslash" horiz-adv-x="575" d="M172-110L115-84L163,21q-55,31-86,86.5T46,231q0,66 29.5,120.5t83.5,87T287,471q40,0 76-10l49,108l56-26L419,436q52-32 80-86t28-119q0-67-29.5-122T414,22T287-10q-35,0-66,8L172-110ZM158,229q0-73 46-117L324,377q-19,6-40,6q-39,0-67-21t-43.5-55.5T158,229ZM290,78q60,0 92.5,44T415,229q0,68-38,112L259,82q15-4 31-4Z" />
      <glyph unicode="&#xf9;" glyph-name="ugrave" horiz-adv-x="556" d="M230-10q-69,0-105,29T76.5,96T64,202V459H172V229q0-53 6.5-86t26-48.5T263,79q28,0 53.5,15.5t42.5,43T376,199V459H483V0H395L383,67Q358,29 321,9.5T230-10Zm41,551L96,750l95,61L344,582l-73-41Z" />
      <glyph unicode="&#xfa;" glyph-name="uacute" horiz-adv-x="556" d="M230-10q-69,0-105,29T76.5,96T64,202V459H172V229q0-53 6.5-86t26-48.5T263,79q28,0 53.5,15.5t42.5,43T376,199V459H483V0H395L383,67Q358,29 321,9.5T230-10Zm37,545l-73,41L347,805l95-61L267,535Z" />
      <glyph unicode="&#xfb;" glyph-name="ucircumflex" horiz-adv-x="556" d="M230-10q-69,0-105,29T76.5,96T64,202V459H172V229q0-53 6.5-86t26-48.5T263,79q28,0 53.5,15.5t42.5,43T376,199V459H483V0H395L383,67Q358,29 321,9.5T230-10ZM154,535L89,589L268,795L447,589l-64-54L268,674L154,535Z" />
      <glyph unicode="&#xfc;" glyph-name="udieresis" horiz-adv-x="556" d="M230-10q-69,0-105,29T76.5,96T64,202V459H172V229q0-53 6.5-86t26-48.5T263,79q28,0 53.5,15.5t42.5,43T376,199V459H483V0H395L383,67Q358,29 321,9.5T230-10ZM388,545q-30,0-51,21t-21,51q0,29 20.5,50T388,688t52-21t21-50q0-30-21-51t-52-21Zm-241,0q-30,0-51,21T75,617q0,29 20.5,50T147,688q32,0 52-21t20-50q0-30-20.5-51T147,545Z" />
      <glyph unicode="&#xfd;" glyph-name="yacute" horiz-adv-x="497" d="M104-252L203-14L13,459H135l98-292l22-71l22,71L380,459H498L216-252H104ZM255,535l-73,41L335,805l95-61L255,535Z" />
      <glyph unicode="&#xfe;" glyph-name="thorn" horiz-adv-x="611" d="M73-243V459h1V736H177V375q7,13 16,24q24,32 62,52t94,20h3h2q61,0 109-27t76-80.5T567,232q0-43-12-82q-16-52-49-89T429,6Q406-3 382-7q-19-3-38-3q-59,0-101,21T177,69V-243H73ZM319,81q68,0 101.5,43T454,229v5v2q-2,63-35.5,102.5T319,378q-19,0-37-5q-35-10-61-37t-35-68q-3-15-3-33v-6q0-56 30-94t74-50q16-4 32-4Z" />
      <glyph unicode="&#xff;" glyph-name="ydieresis" horiz-adv-x="497" d="M104-252L203-14L13,459H135l98-292l22-71l22,71L380,459H498L216-252H104ZM376,545q-30,0-51,21t-21,51q0,29 20.5,50T376,688t52-21t21-50q0-30-21-51t-52-21Zm-241,0q-30,0-51,21T63,617q0,29 20.5,50T135,688q32,0 52-21t20-50q0-30-20.5-51T135,545Z" />
      <glyph unicode="&#x2013;" glyph-name="endash" horiz-adv-x="831" d="M110,203v96H721V203H110Z" />
      <glyph unicode="&#x2014;" glyph-name="emdash" horiz-adv-x="1010" d="M110,203v96H900V203H110Z" />
      <glyph unicode="&#x2018;" glyph-name="quoteleft" horiz-adv-x="273" d="M119,520q-23,0-41,14T50,568.5T40,610q0,31 9.5,66t24,68T106,803.5T140,844h63q-19-35-31.5-82.5T157,668q15-9 28-28.5T198,600q0-31-22-55.5T119,520Z" />
      <glyph unicode="&#x2019;" glyph-name="quoteright" horiz-adv-x="273" d="M70,520q20,35 32,73.5T116,696q-15,9-28,29T75,764q0,32 22.5,56T154,844q24,0 41.5-13.5T223,796t10-42q0-31-9.5-66t-24-68t-32-59.5T133,520H70Z" />
      <glyph unicode="&#x201a;" glyph-name="quotesinglbase" horiz-adv-x="273" d="M154,83q24,0 41.5-13.5T223,35T233-7q0-31-9.5-66t-24-68t-32-59.5T133-241H70q20,35 32,82.5T116-65q-15,9-28,29T75,3q0,32 22.5,56T154,83Z" />
      <glyph unicode="&#x201c;" glyph-name="quotedblleft" horiz-adv-x="502" d="M119,520q-23,0-41,14T50,568.5T40,610q0,31 9.5,66t24,68T106,803.5T140,844h63q-19-35-31.5-82.5T157,668q15-9 28-28.5T198,600q0-31-22-55.5T119,520Zm229,0q-23,0-41,14t-28,34.5T269,610q0,31 9.5,66t24,68T335,803.5T369,844h63q-19-35-31.5-82.5T386,668q15-9 28-28.5T427,600q0-31-22-55.5T348,520Z" />
      <glyph unicode="&#x201d;" glyph-name="quotedblright" horiz-adv-x="502" d="M154,844q24,0 41.5-13.5T223,796t10-42q0-31-9.5-66t-24-68t-32-59.5T133,520H70q20,35 32,82.5T116,696q-15,9-28,29T75,764q0,32 22.5,56T154,844Zm229,0q24,0 41.5-13.5T452,796t10-42q0-31-9.5-66t-24-68t-32-59.5T362,520H299q20,35 32,82.5T345,696q-15,9-28,29t-13,39q0,32 22.5,56T383,844Z" />
      <glyph unicode="&#x201e;" glyph-name="quotedblbase" horiz-adv-x="490" d="M154,83q24,0 41.5-13.5T223,35T233-7q0-31-9.5-66t-24-68t-32-59.5T133-241H70q20,35 32,82.5T116-65q-15,9-28,29T75,3q0,32 22.5,56T154,83Zm217,0q24,0 41.5-13.5T440,35T450-7q0-31-9.5-66t-24-68t-32-59.5T350-241H287q20,35 32,82.5T333-65q-15,9-28,29T292,3q0,32 22.5,56T371,83Z" />
      <glyph unicode="&#x2022;" glyph-name="bullet" horiz-adv-x="555" d="M277,228q-45,0-77,32t-32,77q0,30 14.5,54.5T222,431t55,15q31,0 55.5-15T372,391.5T387,337t-15-54.5T332,243t-55-15Z" />
      <glyph unicode="&#x2039;" glyph-name="guilsinglleft" horiz-adv-x="454" d="M312,57L60,309L312,562l62-75L205,308L370,126L312,57Z" />
      <glyph unicode="&#x203a;" glyph-name="guilsinglright" horiz-adv-x="454" d="M142,57L84,126L249,308L80,487l62,75L394,309L142,57Z" />
    </font>
</defs>
</svg>
